<?xml version="1.0" standalone="no"?>
<!DOCTYPE svg PUBLIC "-//W3C//DTD SVG 20010904//EN"
 "http://www.w3.org/TR/2001/REC-SVG-20010904/DTD/svg10.dtd">
<svg version="1.0" xmlns="http://www.w3.org/2000/svg"
 viewBox="0 0 2048.000000 1001.000000"
 preserveAspectRatio="xMidYMid meet">
<metadata>
Created by potrace 1.16, written by Peter Selinger 2001-2019
</metadata>
<g transform="translate(0.000000,1001.000000) scale(0.100000,-0.100000)"
fill="currentColor" stroke="none">
<path d="M6831 9989 c-173 -37 -326 -110 -435 -210 -31 -28 -142 -144 -248
-258 -106 -113 -230 -247 -277 -296 -48 -50 -183 -196 -301 -325 -118 -129
-249 -271 -290 -315 -42 -44 -100 -107 -130 -140 -62 -68 -232 -251 -426 -460
-337 -361 -359 -390 -404 -525 -30 -90 -38 -260 -16 -353 30 -126 77 -210 171
-306 73 -75 85 -92 85 -122 0 -19 24 -152 53 -297 30 -145 50 -265 46 -267 -4
-3 -65 -4 -135 -3 -112 2 -137 -1 -194 -21 -36 -12 -92 -41 -125 -63 l-59 -41
-156 7 c-85 3 -227 11 -315 16 -513 29 -704 41 -820 50 -71 5 -200 14 -285 20
-85 6 -218 15 -295 20 -77 6 -241 17 -365 26 -124 8 -283 19 -355 24 -71 5
-195 14 -275 19 -369 26 -563 41 -790 61 -63 5 -180 14 -260 20 -80 5 -164 13
-187 16 l-43 6 0 -66 c0 -56 3 -66 18 -66 26 0 368 -26 467 -35 112 -10 447
-36 645 -50 41 -3 102 -8 135 -10 107 -9 196 -15 430 -30 127 -8 253 -17 280
-20 28 -3 156 -12 285 -20 129 -8 296 -19 370 -25 74 -5 212 -14 305 -20 94
-6 184 -12 200 -14 17 -2 98 -7 180 -10 83 -4 215 -11 295 -16 80 -5 224 -12
321 -15 188 -7 225 -2 314 40 108 51 153 65 220 70 136 10 158 20 230 97 64
69 65 71 65 127 0 31 -5 76 -11 101 -6 25 -24 117 -40 205 -38 207 -41 214
-113 319 -140 202 -143 209 -161 288 -14 61 -17 99 -11 179 6 90 11 111 42
173 45 89 86 142 216 283 56 62 145 158 196 215 52 57 124 135 161 173 67 69
105 111 311 335 58 63 139 151 180 195 41 44 102 110 135 146 428 466 701 756
805 854 111 105 279 176 485 205 45 6 1288 10 3438 10 3658 0 3475 3 3627 -54
156 -58 178 -72 313 -204 71 -70 177 -181 235 -247 58 -66 138 -154 177 -195
40 -41 101 -106 136 -145 71 -79 138 -151 220 -240 31 -33 76 -82 100 -110 24
-27 114 -123 199 -214 85 -90 166 -177 180 -194 14 -16 92 -101 174 -189 82
-88 176 -190 209 -226 33 -37 79 -85 102 -107 65 -61 197 -242 229 -315 24
-53 30 -83 34 -160 7 -153 -18 -232 -128 -395 -26 -38 -56 -88 -68 -110 -47
-94 -136 -558 -119 -625 8 -31 94 -123 135 -144 16 -8 77 -20 136 -25 58 -6
113 -15 123 -21 69 -39 224 -93 277 -97 34 -3 192 2 351 11 160 9 337 19 395
22 58 3 119 7 135 9 17 2 73 6 125 10 52 3 129 8 170 10 41 3 134 9 205 15 72
5 227 17 345 25 413 28 656 45 785 55 72 5 166 12 210 15 44 3 186 15 315 25
129 10 276 22 325 25 50 3 159 13 244 21 85 8 162 14 173 14 16 0 18 9 18 64
l0 64 -42 -4 c-24 -2 -92 -8 -153 -13 -337 -30 -962 -78 -1795 -136 -774 -55
-884 -63 -1085 -75 -203 -13 -482 -29 -652 -37 l-132 -6 -37 33 c-83 72 -209
105 -368 95 l-108 -7 4 44 c3 23 30 169 62 322 l57 279 53 58 c113 122 164
241 173 403 8 151 -19 262 -97 390 -31 50 -69 94 -350 396 -212 229 -388 420
-540 585 -85 93 -211 230 -280 304 -68 75 -144 159 -169 186 -25 28 -102 111
-171 185 -70 74 -144 155 -166 180 -122 141 -354 375 -407 410 -99 66 -198
109 -314 135 l-108 25 -3465 -1 c-3413 0 -3466 -1 -3559 -20z M6985 9663 c-49
-7 -124 -25 -165 -38 -177 -59 -274 -145 -725 -635 -109 -118 -228 -247 -264
-285 -36 -39 -102 -111 -146 -159 -44 -49 -90 -99 -101 -110 -12 -12 -41 -43
-64 -71 -24 -27 -96 -106 -160 -175 -65 -69 -137 -149 -159 -177 -23 -29 -45
-53 -50 -53 -5 0 -57 -55 -115 -122 -59 -68 -133 -150 -165 -183 -80 -82 -147
-174 -179 -242 -22 -48 -26 -72 -27 -143 0 -80 2 -89 38 -155 21 -38 55 -87
75 -108 37 -39 143 -117 159 -117 4 0 53 -22 108 -49 137 -68 191 -91 330
-146 66 -26 138 -55 160 -65 69 -32 265 -110 390 -155 66 -23 152 -56 190 -73
39 -16 104 -40 145 -52 73 -21 115 -34 155 -50 98 -38 405 -75 500 -60 66 11
90 26 145 92 41 48 44 54 48 127 3 50 -3 120 -17 205 -12 70 -28 184 -36 253
-8 69 -17 137 -20 151 -2 15 -11 83 -20 152 -9 68 -22 161 -30 205 -7 44 -18
121 -25 170 -6 50 -20 146 -30 215 -11 69 -27 181 -35 250 -9 69 -18 132 -21
140 -3 8 -9 47 -14 85 -4 39 -20 160 -34 271 -31 238 -26 276 34 244 22 -12
36 -53 50 -145 5 -38 16 -115 25 -170 9 -55 27 -174 40 -265 14 -91 29 -183
34 -205 5 -22 15 -80 21 -130 11 -84 40 -272 76 -494 18 -113 73 -468 110
-711 39 -255 52 -296 119 -361 30 -29 68 -60 83 -69 24 -13 352 -15 2932 -18
2114 -2 2920 1 2959 9 44 9 65 21 109 63 30 28 63 69 73 91 17 39 53 224 69
360 12 98 65 447 90 585 11 63 23 135 26 160 2 25 11 79 19 120 7 41 23 140
35 220 12 80 28 174 36 210 8 36 23 133 34 215 24 193 74 461 94 508 19 46 51
51 67 10 15 -39 7 -116 -56 -548 -7 -55 -19 -138 -25 -185 -6 -47 -17 -125
-26 -175 -8 -49 -23 -153 -34 -230 -50 -344 -121 -824 -144 -978 -15 -92 -26
-187 -26 -209 0 -58 33 -121 88 -167 62 -54 137 -67 283 -51 290 31 495 97
1124 358 66 28 156 66 200 85 44 19 145 62 225 97 80 34 150 66 155 70 6 5 44
25 85 46 95 48 195 145 235 228 25 52 29 71 29 145 0 72 -4 96 -26 143 -33 71
-77 136 -143 209 -27 30 -86 96 -130 145 -44 48 -89 98 -101 109 -11 11 -45
47 -74 80 -49 54 -100 111 -340 370 -41 44 -137 150 -214 235 -76 85 -146 162
-155 170 -9 8 -56 60 -106 115 -49 55 -121 134 -161 175 -39 41 -120 129 -180
195 -306 339 -415 410 -689 449 -100 14 -440 16 -3395 15 -2734 -2 -3300 -4
-3375 -16z m6833 -129 c42 -8 114 -33 160 -55 95 -46 140 -88 387 -359 82 -91
183 -201 225 -245 100 -108 365 -397 426 -465 27 -30 103 -113 169 -184 66
-71 152 -164 190 -207 39 -42 160 -175 270 -295 269 -293 269 -293 295 -344
30 -57 33 -168 7 -215 -38 -68 -111 -127 -222 -180 -395 -187 -1237 -526
-1435 -576 -85 -22 -207 -39 -358 -51 -185 -14 -194 -11 -174 45 7 18 12 45
12 59 0 15 5 48 10 75 6 26 33 199 60 383 90 614 91 620 114 765 28 184 56
376 86 595 17 124 42 303 56 398 14 97 22 186 19 203 -8 36 -57 94 -96 115
-40 20 -122 18 -169 -6 -48 -24 -76 -63 -84 -115 -3 -22 -15 -96 -26 -165 -10
-69 -29 -186 -40 -260 -39 -254 -42 -273 -139 -870 -55 -338 -109 -687 -164
-1070 l-23 -155 -2984 -3 c-1641 -1 -2987 1 -2991 5 -8 8 -31 140 -49 273 -13
100 -64 437 -126 825 -30 193 -68 438 -85 545 -17 107 -43 278 -59 380 -16
102 -41 261 -54 353 -29 192 -44 228 -110 258 -81 37 -173 18 -222 -46 -43
-57 -45 -82 -20 -248 13 -84 29 -190 35 -237 7 -47 16 -112 21 -145 10 -66
174 -1212 215 -1500 14 -99 29 -207 34 -240 25 -162 31 -207 25 -216 -17 -28
-445 17 -574 61 -14 5 -79 27 -145 50 -105 36 -474 178 -560 215 -16 7 -102
42 -190 78 -88 36 -200 81 -250 102 -49 20 -159 70 -243 111 -218 106 -272
165 -272 298 0 86 35 137 230 341 47 50 117 126 156 169 38 44 110 123 159
176 50 53 173 188 275 300 102 112 235 255 295 319 61 64 143 155 184 201 74
84 215 236 441 474 191 202 279 258 450 286 25 4 1561 8 3413 9 3021 1 3376
-1 3445 -15z M15640 6593 c-113 -39 -375 -143 -575 -227 -16 -7 -88 -34 -160
-60 -71 -26 -138 -52 -148 -57 -45 -25 -363 -123 -467 -144 -252 -52 -46 -50
-3885 -50 -3861 0 -3700 -2 -3945 51 -115 26 -387 109 -404 125 -6 5 -16 9
-24 9 -8 0 -67 21 -131 46 -64 25 -136 53 -161 61 -25 8 -72 27 -105 43 -33
15 -118 51 -190 78 -71 28 -166 65 -210 82 -48 20 -104 34 -140 37 -53 3 -64
1 -99 -24 -49 -35 -86 -103 -86 -157 0 -23 7 -68 15 -99 8 -32 15 -68 15 -80
0 -12 13 -85 29 -162 31 -146 78 -385 106 -540 8 -49 22 -112 30 -140 7 -27
23 -106 36 -175 12 -69 35 -188 51 -265 67 -324 117 -573 123 -615 4 -25 16
-82 26 -128 11 -46 26 -122 35 -170 9 -48 20 -105 24 -127 4 -22 19 -98 34
-170 14 -71 30 -152 36 -180 5 -27 23 -115 39 -195 17 -80 55 -275 86 -435 59
-305 121 -617 140 -710 5 -23 34 -170 71 -360 14 -71 34 -170 45 -220 11 -49
28 -139 39 -199 11 -60 31 -163 44 -230 13 -67 34 -173 46 -236 51 -266 133
-422 272 -517 29 -20 59 -43 66 -50 35 -35 128 -70 242 -91 76 -14 465 -16
3780 -18 2132 -1 3731 1 3780 7 108 11 171 26 238 55 82 36 189 112 247 176
105 117 144 231 225 663 23 121 66 346 96 500 31 154 66 339 80 410 13 72 33
171 43 220 11 50 41 200 66 335 26 135 53 274 60 310 8 36 19 88 24 115 5 28
41 208 81 400 40 193 78 384 85 425 18 101 71 360 89 440 15 63 34 163 40 206
2 11 10 54 19 95 9 41 28 135 42 209 27 142 77 389 100 500 7 36 32 162 54
280 23 118 52 265 65 325 14 61 32 151 41 200 9 50 21 110 27 135 18 76 21 98
13 146 -5 38 -16 56 -60 100 -49 49 -57 54 -97 53 -23 0 -50 -3 -58 -6z m140
-75 c0 -7 -8 -33 -16 -58 -9 -25 -20 -61 -25 -80 -34 -151 -51 -232 -60 -275
-5 -27 -13 -68 -18 -90 -13 -60 -201 -1003 -295 -1480 -20 -99 -71 -355 -115
-570 -124 -615 -166 -824 -211 -1055 -23 -118 -82 -417 -131 -665 -112 -568
-140 -710 -179 -915 -17 -91 -40 -208 -50 -260 -10 -52 -23 -126 -30 -165 -41
-238 -160 -381 -380 -457 l-65 -23 -3825 0 -3825 0 -78 29 c-154 56 -278 178
-327 320 -9 28 -27 103 -39 166 -33 171 -217 1110 -241 1225 -11 55 -38 190
-60 300 -178 911 -243 1243 -260 1320 -10 50 -24 117 -30 150 -7 33 -20 101
-31 150 -10 50 -32 162 -49 250 -17 88 -51 259 -76 380 -25 121 -61 301 -80
400 -19 99 -43 218 -54 265 -10 47 -24 114 -30 150 -7 36 -20 108 -31 160
-147 736 -153 764 -171 785 -12 14 -10 45 5 45 7 0 41 -14 75 -31 80 -38 241
-106 402 -169 69 -27 159 -63 200 -80 264 -109 586 -219 744 -254 246 -54 13
-51 3976 -51 3495 0 3690 1 3785 18 144 26 253 53 385 97 137 46 489 179 595
225 17 7 89 37 160 65 147 58 319 132 410 175 37 18 45 18 45 3z M0 5903 l0
-60 58 -7 c110 -12 413 -37 667 -56 72 -5 184 -14 250 -20 391 -32 720 -55
1350 -95 530 -34 679 -43 895 -55 102 -6 246 -15 320 -20 74 -5 198 -12 275
-15 77 -3 155 -8 173 -11 30 -5 32 -7 32 -48 0 -24 13 -145 29 -268 17 -122
44 -333 61 -468 17 -135 35 -276 40 -315 6 -38 17 -128 25 -200 29 -243 46
-380 55 -450 5 -38 14 -108 20 -155 5 -47 19 -152 29 -235 11 -82 24 -193 31
-245 6 -52 16 -117 22 -143 7 -34 7 -52 0 -59 -7 -7 -72 -7 -214 1 -112 6
-282 16 -378 21 -347 20 -735 44 -975 60 -77 5 -212 14 -300 20 -88 6 -216 15
-285 20 -69 5 -190 14 -270 20 -197 15 -609 48 -750 60 -129 12 -173 15 -345
30 -135 12 -243 21 -560 50 -121 11 -228 20 -238 20 -16 0 -18 -8 -15 -62 l3
-63 95 -7 c86 -7 351 -31 820 -73 91 -8 194 -17 230 -19 93 -7 318 -25 365
-31 22 -3 74 -7 115 -10 81 -5 317 -23 415 -30 113 -9 190 -15 355 -25 91 -5
226 -15 300 -20 145 -11 538 -36 685 -45 50 -2 214 -12 365 -21 151 -9 334
-14 406 -12 113 4 136 7 167 27 83 51 121 134 112 242 -10 114 -24 242 -40
354 -17 123 -75 589 -106 850 -11 94 -26 220 -34 280 -7 61 -23 184 -34 275
-12 91 -25 194 -31 230 -5 36 -12 90 -15 120 -9 90 -35 243 -47 275 -16 43
-106 134 -154 156 -42 19 -182 33 -439 44 -71 3 -139 7 -150 10 -11 2 -87 6
-170 10 -82 3 -159 8 -170 10 -11 2 -81 6 -155 10 -74 3 -157 8 -185 10 -27 3
-123 10 -212 15 -247 15 -479 30 -563 35 -41 3 -176 12 -300 21 -124 8 -245
17 -270 19 -45 5 -359 30 -500 40 -41 3 -97 7 -125 10 -27 2 -88 7 -135 10
-107 7 -270 20 -370 30 -25 3 -87 8 -137 11 l-93 7 0 -60z M20429 5946 c-2 -2
-55 -6 -118 -10 -62 -3 -116 -8 -120 -10 -3 -2 -85 -9 -181 -15 -96 -6 -222
-16 -280 -21 -58 -5 -168 -14 -245 -20 -77 -6 -194 -15 -260 -20 -130 -10
-218 -16 -420 -30 -159 -11 -554 -38 -650 -44 -109 -8 -230 -15 -345 -21 -98
-5 -131 -7 -301 -20 -37 -3 -181 -11 -320 -20 -331 -19 -366 -23 -408 -45 -45
-23 -124 -114 -139 -160 -14 -43 -44 -249 -87 -600 -7 -63 -21 -169 -29 -235
-9 -66 -34 -271 -56 -455 -37 -306 -53 -434 -95 -770 -44 -339 -45 -400 -14
-463 51 -102 112 -130 283 -130 105 0 303 8 446 18 36 3 144 9 240 15 96 6
274 17 395 25 121 8 265 17 320 20 55 3 156 10 225 15 69 5 199 14 290 20 91
5 212 15 270 20 58 5 200 17 315 25 116 8 257 19 315 25 58 5 206 19 330 30
124 12 313 30 420 41 107 10 211 19 232 19 l38 0 0 65 c0 77 15 73 -185 51
-71 -8 -182 -19 -245 -26 -63 -6 -162 -15 -220 -20 -58 -6 -148 -15 -200 -20
-52 -5 -131 -12 -175 -15 -44 -4 -129 -11 -190 -16 -465 -38 -1459 -107 -2018
-139 -210 -12 -497 -27 -686 -37 l-134 -6 7 29 c13 59 35 213 56 384 11 96 25
207 31 245 5 39 27 219 49 400 22 182 45 368 50 415 6 47 15 119 20 160 5 41
19 149 30 240 11 91 24 197 30 235 5 39 14 111 20 160 7 50 16 114 21 144 5
30 9 81 9 112 0 67 18 94 59 86 14 -3 98 -1 186 4 88 5 241 14 340 19 99 5
250 14 335 20 85 5 229 15 320 20 91 6 233 15 315 20 174 11 461 31 995 71 74
5 187 14 250 19 154 13 334 27 510 41 80 6 181 15 225 20 44 5 105 9 137 9
l58 0 0 59 c0 44 -4 60 -16 65 -18 7 -29 8 -35 2z M4544 5801 c-69 -18 -142
-73 -185 -140 -27 -42 -29 -51 -29 -151 0 -58 7 -160 15 -225 8 -66 22 -178
31 -250 8 -71 24 -189 35 -262 10 -73 26 -190 34 -260 8 -70 23 -195 35 -278
11 -82 25 -190 30 -240 6 -49 17 -130 25 -180 8 -49 26 -189 40 -310 14 -121
30 -247 35 -280 5 -33 14 -107 20 -164 6 -57 15 -113 20 -125 4 -11 13 -39 19
-61 15 -57 89 -137 158 -171 57 -28 62 -29 218 -29 180 0 232 10 283 56 57 51
72 86 72 166 0 66 -21 184 -110 633 -12 58 -26 130 -31 160 -26 145 -81 432
-94 490 -8 36 -33 162 -56 280 -41 218 -172 882 -209 1065 -12 55 -32 118 -45
141 -23 40 -87 99 -133 123 -28 15 -138 23 -178 12z m204 -123 c7 -7 12 -24
12 -39 0 -15 4 -49 10 -76 5 -26 28 -145 51 -263 39 -208 91 -474 224 -1145
35 -176 76 -385 90 -465 15 -80 48 -246 72 -370 25 -124 54 -270 65 -325 20
-98 32 -155 39 -185 3 -13 -26 -15 -211 -18 -232 -3 -249 0 -295 49 -31 31
-24 -9 -100 609 -14 118 -30 244 -36 279 -14 92 -78 594 -104 826 -9 72 -18
139 -20 150 -5 19 -22 146 -60 455 -8 69 -24 196 -36 283 l-21 158 27 35 c15
20 37 39 49 44 33 14 230 12 244 -2z M16062 5797 c-53 -20 -128 -92 -156 -149
-15 -31 -36 -110 -51 -188 -14 -74 -33 -169 -41 -210 -8 -41 -27 -133 -41
-205 -14 -71 -29 -148 -33 -170 -5 -22 -36 -179 -69 -350 -33 -170 -67 -344
-76 -385 -37 -181 -78 -393 -96 -495 -11 -60 -31 -164 -45 -230 -107 -514
-112 -571 -58 -639 16 -21 54 -51 84 -69 l55 -32 160 0 c211 0 255 13 337 96
44 45 61 72 73 111 16 58 45 233 51 313 2 28 10 97 19 155 25 170 52 377 90
675 20 154 56 438 80 630 25 193 54 427 65 520 11 94 24 204 29 245 22 175
-19 279 -139 355 -48 30 -184 43 -238 22z m250 -147 c33 -39 33 -22 4 -240 -9
-63 -22 -171 -31 -240 -8 -69 -28 -233 -45 -365 -17 -132 -35 -276 -40 -320
-13 -113 -73 -577 -105 -815 -40 -295 -56 -419 -76 -595 -34 -288 -32 -287
-352 -283 -205 3 -212 4 -210 23 1 11 19 106 41 210 61 293 107 520 152 755
81 423 182 938 220 1120 21 102 52 259 70 350 17 91 40 211 51 266 10 56 19
113 19 126 0 45 16 50 149 46 l123 -3 30 -35z M0 2911 l0 -60 43 -5 c57 -8
293 -29 852 -76 405 -34 539 -45 725 -60 74 -5 194 -14 265 -20 295 -23 893
-63 1170 -80 402 -23 522 -30 735 -40 124 -6 297 -15 385 -20 88 -6 189 -10
224 -10 61 0 64 -1 109 -47 55 -54 159 -106 246 -122 34 -6 183 -11 351 -11
l292 0 12 -72 c7 -40 40 -206 73 -368 33 -162 77 -385 99 -495 22 -110 44
-218 49 -240 5 -22 28 -137 51 -255 49 -258 65 -311 130 -440 39 -78 69 -119
131 -185 136 -144 254 -215 446 -268 l117 -32 3840 -3 c4174 -3 3925 -6 4089
49 314 106 559 380 620 694 40 209 172 871 226 1140 33 165 65 332 71 370 5
39 12 78 15 87 5 17 28 18 295 18 232 0 304 3 362 16 98 22 169 58 232 116
l53 48 96 0 c52 0 162 4 243 9 82 6 254 15 383 21 276 13 509 26 1105 66 289
19 731 50 895 64 116 10 189 16 485 40 193 15 849 77 923 86 l42 5 0 61 0 60
-87 -6 c-49 -4 -140 -13 -203 -21 -63 -8 -158 -17 -210 -20 -52 -3 -138 -10
-190 -15 -52 -5 -122 -12 -155 -14 -33 -3 -85 -7 -115 -10 -30 -3 -109 -10
-175 -16 -66 -5 -151 -12 -190 -15 -38 -3 -97 -8 -130 -10 -33 -3 -116 -9
-185 -15 -176 -14 -377 -28 -500 -36 -58 -3 -107 -7 -110 -9 -3 -2 -61 -6
-130 -9 -69 -3 -156 -8 -195 -11 -38 -3 -110 -7 -160 -10 -49 -3 -112 -8 -140
-10 -27 -3 -147 -9 -265 -15 -359 -16 -465 -22 -470 -25 -3 -2 -90 -6 -195
-10 -294 -10 -359 -19 -430 -56 -146 -77 -214 -108 -265 -119 -31 -7 -165 -15
-310 -19 -284 -7 -273 -4 -357 -84 -60 -57 -70 -82 -107 -267 -14 -69 -48
-235 -76 -370 -28 -135 -56 -270 -61 -300 -45 -240 -143 -714 -155 -755 -91
-286 -329 -499 -623 -555 -102 -20 -146 -20 -3955 -18 l-3851 3 -106 37 c-58
20 -132 52 -165 72 -164 98 -286 253 -351 446 -18 53 -109 482 -169 795 -12
66 -86 422 -105 510 -5 22 -13 63 -18 90 -5 28 -19 92 -30 143 -23 104 -51
148 -136 210 l-49 37 -266 6 c-292 7 -348 16 -448 71 -208 115 -193 112 -557
128 -132 6 -260 13 -285 15 -25 2 -108 6 -185 10 -187 8 -280 13 -565 30 -47
3 -191 12 -320 20 -346 22 -390 25 -440 30 -25 2 -85 7 -135 10 -49 3 -142 10
-205 15 -63 6 -207 17 -320 25 -192 14 -364 28 -505 40 -33 3 -134 12 -225 20
-91 7 -201 17 -245 20 -44 3 -125 10 -180 15 -55 5 -156 14 -225 20 -69 6
-153 13 -187 16 l-63 6 0 -61z"/>
</g>
</svg>
